<svg width="1200" height="800" viewBox="0 0 1200 800" fill="none" xmlns="http://www.w3.org/2000/svg">
  <!-- Background -->
  <rect width="1200" height="800" fill="#0f172a"/>
  
  <!-- Header -->
  <rect x="0" y="0" width="1200" height="60" fill="#1e293b"/>
  <rect x="20" y="20" width="120" height="20" rx="4" fill="#3b82f6"/>
  <rect x="1060" y="20" width="120" height="20" rx="10" fill="#374151"/>
  
  <!-- Sidebar -->
  <rect x="0" y="60" width="240" height="740" fill="#1e293b"/>
  <rect x="20" y="80" width="200" height="16" rx="4" fill="#374151"/>
  <rect x="20" y="110" width="180" height="12" rx="4" fill="#4b5563"/>
  <rect x="20" y="130" width="160" height="12" rx="4" fill="#4b5563"/>
  <rect x="20" y="150" width="170" height="12" rx="4" fill="#4b5563"/>
  <rect x="20" y="170" width="150" height="12" rx="4" fill="#4b5563"/>
  
  <!-- Main Content Area -->
  <rect x="260" y="80" width="920" height="700" fill="#0f172a"/>
  
  <!-- Stats Cards -->
  <rect x="280" y="100" width="200" height="120" rx="8" fill="#1e293b" stroke="#374151"/>
  <rect x="300" y="120" width="60" height="12" rx="4" fill="#6b7280"/>
  <rect x="300" y="140" width="120" height="20" rx="4" fill="#3b82f6"/>
  <rect x="300" y="170" width="80" height="8" rx="4" fill="#10b981"/>
  
  <rect x="500" y="100" width="200" height="120" rx="8" fill="#1e293b" stroke="#374151"/>
  <rect x="520" y="120" width="70" height="12" rx="4" fill="#6b7280"/>
  <rect x="520" y="140" width="100" height="20" rx="4" fill="#ef4444"/>
  <rect x="520" y="170" width="90" height="8" rx="4" fill="#f59e0b"/>
  
  <rect x="720" y="100" width="200" height="120" rx="8" fill="#1e293b" stroke="#374151"/>
  <rect x="740" y="120" width="50" height="12" rx="4" fill="#6b7280"/>
  <rect x="740" y="140" width="110" height="20" rx="4" fill="#10b981"/>
  <rect x="740" y="170" width="70" height="8" rx="4" fill="#3b82f6"/>
  
  <rect x="940" y="100" width="200" height="120" rx="8" fill="#1e293b" stroke="#374151"/>
  <rect x="960" y="120" width="40" height="12" rx="4" fill="#6b7280"/>
  <rect x="960" y="140" width="80" height="20" rx="4" fill="#8b5cf6"/>
  <rect x="960" y="170" width="60" height="8" rx="4" fill="#06b6d4"/>
  
  <!-- Chart Area -->
  <rect x="280" y="250" width="560" height="300" rx="8" fill="#1e293b" stroke="#374151"/>
  <rect x="300" y="270" width="100" height="12" rx="4" fill="#6b7280"/>
  
  <!-- Chart Lines -->
  <path d="M320 450 L380 420 L440 380 L500 360 L560 340 L620 320 L680 300 L740 280" stroke="#3b82f6" stroke-width="3" fill="none"/>
  <path d="M320 480 L380 460 L440 440 L500 420 L560 400 L620 380 L680 360 L740 340" stroke="#10b981" stroke-width="3" fill="none"/>
  
  <!-- Chart Points -->
  <circle cx="320" cy="450" r="4" fill="#3b82f6"/>
  <circle cx="380" cy="420" r="4" fill="#3b82f6"/>
  <circle cx="440" cy="380" r="4" fill="#3b82f6"/>
  <circle cx="500" cy="360" r="4" fill="#3b82f6"/>
  <circle cx="560" cy="340" r="4" fill="#3b82f6"/>
  <circle cx="620" cy="320" r="4" fill="#3b82f6"/>
  <circle cx="680" cy="300" r="4" fill="#3b82f6"/>
  <circle cx="740" cy="280" r="4" fill="#3b82f6"/>
  
  <!-- Pie Chart -->
  <rect x="860" y="250" width="280" height="300" rx="8" fill="#1e293b" stroke="#374151"/>
  <rect x="880" y="270" width="120" height="12" rx="4" fill="#6b7280"/>
  <circle cx="1000" cy="400" r="80" fill="none" stroke="#374151" stroke-width="2"/>
  <path d="M1000 320 A80 80 0 0 1 1056 356 L1000 400 Z" fill="#3b82f6"/>
  <path d="M1056 356 A80 80 0 0 1 1056 444 L1000 400 Z" fill="#10b981"/>
  <path d="M1056 444 A80 80 0 0 1 944 444 L1000 400 Z" fill="#f59e0b"/>
  <path d="M944 444 A80 80 0 1 1 1000 320 L1000 400 Z" fill="#ef4444"/>
  
  <!-- Table Area -->
  <rect x="280" y="570" width="860" height="200" rx="8" fill="#1e293b" stroke="#374151"/>
  <rect x="300" y="590" width="140" height="12" rx="4" fill="#6b7280"/>
  
  <!-- Table Rows -->
  <rect x="300" y="620" width="800" height="1" fill="#374151"/>
  <rect x="300" y="640" width="120" height="8" rx="4" fill="#4b5563"/>
  <rect x="500" y="640" width="80" height="8" rx="4" fill="#4b5563"/>
  <rect x="650" y="640" width="60" height="8" rx="4" fill="#10b981"/>
  <rect x="780" y="640" width="40" height="8" rx="4" fill="#4b5563"/>
  
  <rect x="300" y="660" width="800" height="1" fill="#374151"/>
  <rect x="300" y="680" width="140" height="8" rx="4" fill="#4b5563"/>
  <rect x="500" y="680" width="70" height="8" rx="4" fill="#4b5563"/>
  <rect x="650" y="680" width="70" height="8" rx="4" fill="#3b82f6"/>
  <rect x="780" y="680" width="50" height="8" rx="4" fill="#4b5563"/>
  
  <rect x="300" y="700" width="800" height="1" fill="#374151"/>
  <rect x="300" y="720" width="100" height="8" rx="4" fill="#4b5563"/>
  <rect x="500" y="720" width="90" height="8" rx="4" fill="#4b5563"/>
  <rect x="650" y="720" width="50" height="8" rx="4" fill="#f59e0b"/>
  <rect x="780" y="720" width="60" height="8" rx="4" fill="#4b5563"/>
  
  <!-- Logo/Brand -->
  <text x="30" y="35" font-family="Arial, sans-serif" font-size="14" font-weight="bold" fill="#3b82f6">FinTracker</text>
  
  <!-- Dashboard Title -->
  <text x="300" y="45" font-family="Arial, sans-serif" font-size="18" font-weight="bold" fill="#f1f5f9">Financial Dashboard</text>
</svg>